<svg id="visual" viewBox="0 0 960 540" width="960" height="540" xmlns="http://www.w3.org/2000/svg" xmlns:xlink="http://www.w3.org/1999/xlink" version="1.1"><path d="M0 266L26.7 259.7C53.3 253.3 106.7 240.7 160 228.8C213.3 217 266.7 206 320 188.8C373.3 171.7 426.7 148.3 480 137.7C533.3 127 586.7 129 640 140.7C693.3 152.3 746.7 173.7 800 197.8C853.3 222 906.7 249 933.3 262.5L960 276L960 0L933.3 0C906.7 0 853.3 0 800 0C746.7 0 693.3 0 640 0C586.7 0 533.3 0 480 0C426.7 0 373.3 0 320 0C266.7 0 213.3 0 160 0C106.7 0 53.3 0 26.7 0L0 0Z" fill="#d4e1e1"></path><path d="M0 379L26.7 385.3C53.3 391.7 106.7 404.3 160 404.3C213.3 404.3 266.7 391.7 320 383.5C373.3 375.3 426.7 371.7 480 369C533.3 366.3 586.7 364.7 640 368.3C693.3 372 746.7 381 800 392.7C853.3 404.3 906.7 418.7 933.3 425.8L960 433L960 274L933.3 260.5C906.7 247 853.3 220 800 195.8C746.7 171.7 693.3 150.3 640 138.7C586.7 127 533.3 125 480 135.7C426.7 146.3 373.3 169.7 320 186.8C266.7 204 213.3 215 160 226.8C106.7 238.7 53.3 251.3 26.7 257.7L0 264Z" fill="#c1d3d3"></path><path d="M0 541L26.7 541C53.3 541 106.7 541 160 541C213.3 541 266.7 541 320 541C373.3 541 426.7 541 480 541C533.3 541 586.7 541 640 541C693.3 541 746.7 541 800 541C853.3 541 906.7 541 933.3 541L960 541L960 431L933.3 423.8C906.7 416.7 853.3 402.3 800 390.7C746.7 379 693.3 370 640 366.3C586.7 362.7 533.3 364.3 480 367C426.7 369.7 373.3 373.3 320 381.5C266.7 389.7 213.3 402.3 160 402.3C106.7 402.3 53.3 389.7 26.7 383.3L0 377Z" fill="#9cb3b3"></path></svg>